<svg xmlns="http://www.w3.org/2000/svg" width="1260" height="880" viewBox="0 0 1260 880" font-family="Inter, Roboto, system-ui, sans-serif">
  <style>
    .pri { fill:#E8EAED; }
    .sec { fill:#9AA0A6; }
    .dis { fill:#5F6368; }
    .sal { fill:#FA8072; }
    .sal3 { fill:#FF9A8C; }
    .onsal { fill:#20100D; }
    .mono { font-family:'JetBrains Mono','Roboto Mono',ui-monospace,monospace; }
    .badge { fill:#14161A; stroke:#FA8072; stroke-width:1.5; }
    .badgetxt { fill:#FA8072; font-size:10px; font-weight:600; }
    .legendtxt { fill:#9AA0A6; font-size:10.5px; }
    .hair { stroke:#33383F; stroke-width:1; }
    .slice { stroke:#454C56; stroke-width:1; }
    .card { fill:#1B1E23; }
    .chip { fill:#22262C; stroke:#33383F; }
    .track { fill:#33383F; }
    .cap9 { font-size:9.5px; }
  </style>

  <rect width="1260" height="880" fill="#14161A"/>
  <rect x="40" y="40" width="960" height="800" rx="8" fill="#14161A" stroke="#33383F"/>

  <!-- ==================== APP BAR h48 ==================== -->
  <path d="M40,88 V48 Q40,40 48,40 H992 Q1000,40 1000,48 V88 Z" fill="#1B1E23"/>
  <line x1="40" y1="88" x2="1000" y2="88" class="hair"/>
  <circle cx="64" cy="64" r="6" class="sal"/>
  <text x="78" y="69" class="pri" font-size="14" font-weight="700" letter-spacing="2">NEDIT</text>
  <rect x="150" y="52" width="170" height="24" rx="2" class="chip"/>
  <text x="162" y="67" class="sec" font-size="10.5" letter-spacing="0.5">TRIGGER MODE</text>
  <path d="M300,61 l5,6 l5,-6 z" class="sec"/>
  <rect x="328" y="52" width="104" height="24" rx="2" class="chip"/>
  <text x="340" y="68" class="pri mono" font-size="11">120.0 BPM</text>
  <rect x="668" y="52" width="158" height="24" rx="2" class="chip"/>
  <text x="680" y="68" class="sec" font-size="10.5">breaks_120.wav</text>
  <rect x="834" y="52" width="96" height="24" rx="4" class="sal"/>
  <text x="882" y="68" text-anchor="middle" class="onsal" font-size="10.5" font-weight="700" letter-spacing="1">LOAD SAMPLE</text>
  <circle cx="958" cy="64" r="8" fill="none" stroke="#9AA0A6" stroke-width="1.5"/>
  <circle cx="958" cy="64" r="2.5" fill="none" stroke="#9AA0A6" stroke-width="1.5"/>

  <!-- ==================== WAVEFORM CARD h240 (96..336) ==================== -->
  <rect x="64" y="96" width="912" height="240" rx="6" class="card"/>
  <clipPath id="waveclip"><rect x="76" y="108" width="888" height="194"/></clipPath>
  <g clip-path="url(#waveclip)">
    <polygon fill="#343A43" points="84,201 100,196 112,165 120,178 136,198 152,202 168,171 176,184 192,199 208,204
      224,166 232,181 248,201 264,205 280,160 290,177 306,199 320,204 336,172 344,186 360,202 376,205
      392,157 402,175 418,198 434,203 450,168 458,183 474,201 490,205 506,163 516,179 532,200 548,204
      564,169 572,183 588,201 604,205 620,159 630,176 646,198 662,204 678,167 686,182 702,202 718,205
      734,162 744,177 760,199 776,204 792,170 800,184 816,202 832,205 848,164 858,180 874,201 890,204
      906,171 914,185 930,201 946,204 964,201
      964,209 946,206 930,209 914,225 906,239 890,206 874,209 858,230 848,246 832,205 816,208 800,226
      792,240 776,206 760,211 744,233 734,248 718,205 702,208 686,228 678,243 662,206 646,212 630,234
      620,251 604,205 588,209 572,227 564,241 548,206 532,210 516,231 506,247 490,205 474,209 458,227
      450,242 434,207 418,212 402,235 392,253 376,205 360,208 344,224 336,238 320,206 306,211 290,233
      280,250 264,205 248,209 232,229 224,244 208,206 192,211 176,226 168,239 152,208 136,212 120,232
      112,245 100,214 84,209"/>
    <line x1="76" y1="205" x2="964" y2="205" stroke="#2A2F36" stroke-width="1"/>
    <g class="slice">
      <line x1="148" y1="112" x2="148" y2="302"/><line x1="232" y1="112" x2="232" y2="302"/>
      <line x1="308" y1="112" x2="308" y2="302"/><line x1="560" y1="112" x2="560" y2="302"/>
      <line x1="644" y1="112" x2="644" y2="302"/><line x1="720" y1="112" x2="720" y2="302"/>
      <line x1="800" y1="112" x2="800" y2="302"/><line x1="880" y1="112" x2="880" y2="302"/>
    </g>
    <rect x="392" y="112" width="88" height="190" fill="#3B2622" opacity="0.6"/>
    <line x1="392" y1="112" x2="392" y2="302" stroke="#FA8072" stroke-width="1.5"/>
    <line x1="480" y1="112" x2="480" y2="302" stroke="#FA8072" stroke-width="1.5"/>
    <line x1="430" y1="112" x2="430" y2="302" stroke="#FF9A8C" stroke-width="2"/>
    <polygon points="424,106 436,106 430,114" class="sal3"/>
  </g>
  <line x1="64" y1="308" x2="976" y2="308" class="hair"/>
  <g class="dis mono" font-size="8.5">
    <text x="84" y="326">0:00</text><text x="264" y="326">0:02</text><text x="448" y="326">0:04</text>
    <text x="632" y="326">0:06</text><text x="816" y="326">0:08</text>
  </g>
  <g stroke="#33383F" stroke-width="1">
    <line x1="84" y1="312" x2="84" y2="318"/><line x1="264" y1="312" x2="264" y2="318"/>
    <line x1="448" y1="312" x2="448" y2="318"/><line x1="632" y1="312" x2="632" y2="318"/>
    <line x1="816" y1="312" x2="816" y2="318"/>
  </g>
  <g>
    <rect x="896" y="310" width="20" height="18" rx="2" class="chip"/>
    <rect x="920" y="310" width="20" height="18" rx="2" class="chip"/>
    <rect x="944" y="310" width="20" height="18" rx="2" class="chip"/>
    <g class="sec" font-size="10" text-anchor="middle">
      <text x="906" y="323">+</text><text x="930" y="323">&#8722;</text><text x="954" y="323">&#8964;</text>
    </g>
  </g>

  <!-- ==================== GLOBAL STRIP h60: TEMPO &amp; TIMING (344..404) ==================== -->
  <rect x="64" y="344" width="912" height="60" rx="6" class="card"/>
  <text x="76" y="362" class="sec" font-size="10.5" letter-spacing="1.5" font-weight="500">TEMPO &amp; TIMING</text>
  <g opacity="0.5">
    <text x="84" y="390" class="sec cap9">MANUAL TEMPO</text>
    <rect x="196" y="384" width="90" height="4" rx="2" class="track"/>
    <rect x="196" y="384" width="58" height="4" rx="2" class="sal"/>
    <text x="330" y="390" text-anchor="end" class="pri mono cap9">132.0 BPM</text>
    <text x="384" y="390" class="sec cap9">LOOP LENGTH</text>
    <rect x="486" y="376" width="88" height="16" rx="2" class="chip"/>
    <text x="496" y="388" class="pri cap9">8 BARS</text>
    <path d="M558,382 l5,6 l5,-6 z" class="sec"/>
    <text x="684" y="390" class="sec cap9">QUANTIZE</text>
    <rect x="786" y="376" width="72" height="16" rx="2" class="chip"/>
    <text x="796" y="388" class="pri cap9">1/16</text>
    <path d="M844,382 l5,6 l5,-6 z" class="sec"/>
  </g>

  <!-- ==================== TOOL CARDS 2x2, h60 each (rows 412..472, 480..540) ==================== -->
  <!-- DETECTOR -->
  <rect x="64" y="412" width="452" height="60" rx="6" class="card"/>
  <text x="76" y="432" class="sec" font-size="10.5" letter-spacing="1.5" font-weight="500">DETECTOR</text>
  <g opacity="0.5">
    <text x="76" y="456" class="sec cap9">SENSITIVITY</text>
    <rect x="176" y="450" width="70" height="4" rx="2" class="track"/>
    <rect x="176" y="450" width="38" height="4" rx="2" class="sal"/>
    <text x="300" y="456" text-anchor="end" class="pri mono cap9">50%</text>
    <text x="320" y="456" class="sec cap9">ONSET ADJ.</text>
    <rect x="420" y="450" width="70" height="4" rx="2" class="track"/>
    <rect x="420" y="450" width="24" height="4" rx="2" class="sal"/>
    <text x="504" y="456" text-anchor="end" class="pri mono cap9">30%</text>
  </g>

  <!-- ENVELOPE -->
  <rect x="524" y="412" width="452" height="60" rx="6" class="card"/>
  <text x="536" y="432" class="sec" font-size="10.5" letter-spacing="1.5" font-weight="500">ENVELOPE</text>
  <g opacity="0.5">
    <text x="536" y="456" class="sec cap9">ATTACK</text>
    <rect x="636" y="450" width="70" height="4" rx="2" class="track"/>
    <rect x="636" y="450" width="18" height="4" rx="2" class="sal"/>
    <text x="760" y="456" text-anchor="end" class="pri mono cap9">5.0 MS</text>
    <text x="780" y="456" class="sec cap9">RELEASE</text>
    <rect x="880" y="450" width="70" height="4" rx="2" class="track"/>
    <rect x="880" y="450" width="46" height="4" rx="2" class="sal"/>
    <text x="964" y="456" text-anchor="end" class="pri mono cap9">120 MS</text>
  </g>

  <!-- PITCH MODE -->
  <rect x="64" y="480" width="452" height="60" rx="6" class="card"/>
  <text x="76" y="500" class="sec" font-size="10.5" letter-spacing="1.5" font-weight="500">PITCH MODE</text>
  <g opacity="0.5">
    <text x="76" y="524" class="sec cap9">MODE</text>
    <rect x="136" y="512" width="96" height="16" rx="2" class="chip"/>
    <text x="146" y="524" class="pri cap9">REPITCH</text>
    <path d="M216,518 l5,6 l5,-6 z" class="sec"/>
    <text x="260" y="524" class="sec cap9">QUANTIZE LENGTH</text>
    <rect x="384" y="512" width="72" height="16" rx="2" class="chip"/>
    <text x="394" y="524" class="pri cap9">1/16</text>
    <path d="M442,518 l5,6 l5,-6 z" class="sec"/>
  </g>

  <!-- TRIM &amp; EDITS -->
  <rect x="524" y="480" width="452" height="60" rx="6" class="card"/>
  <text x="536" y="500" class="sec" font-size="10.5" letter-spacing="1.5" font-weight="500">TRIM &amp; EDITS</text>
  <g opacity="0.5">
    <text x="536" y="524" class="sec cap9">START</text>
    <rect x="636" y="520" width="70" height="4" rx="2" class="track"/>
    <rect x="636" y="520" width="8" height="4" rx="2" class="sal"/>
    <text x="760" y="524" text-anchor="end" class="pri mono cap9">2.4%</text>
    <text x="780" y="524" class="sec cap9">END</text>
    <rect x="880" y="520" width="70" height="4" rx="2" class="track"/>
    <rect x="880" y="520" width="66" height="4" rx="2" class="sal"/>
    <text x="964" y="524" text-anchor="end" class="pri mono cap9">98.0%</text>
  </g>

  <!-- ==================== TAB BAR h32 (548..580) ==================== -->
  <g font-size="11" letter-spacing="1.5" text-anchor="middle" font-weight="500">
    <text x="178" y="568" class="sal">GENERATE</text>
    <text x="406" y="568" class="sec">SEQUENCER</text>
    <text x="634" y="568" class="sec">PERFORMANCE</text>
    <text x="862" y="568" class="sec">CONTROL</text>
  </g>
  <rect x="64" y="576" width="228" height="2" rx="1" class="sal"/>

  <!-- ==================== PANEL AREA h228 (588..816) ==================== -->
  <rect x="64" y="588" width="280" height="228" rx="6" class="card"/>
  <text x="76" y="606" class="sec" font-size="10.5" letter-spacing="1.5" font-weight="500">STYLE WEIGHTS</text>
  <g opacity="0.5">
    <g stroke="#33383F" stroke-width="2" stroke-linecap="round">
      <line x1="92" y1="620" x2="92" y2="792"/><line x1="120" y1="620" x2="120" y2="792"/>
      <line x1="148" y1="620" x2="148" y2="792"/><line x1="176" y1="620" x2="176" y2="792"/>
      <line x1="204" y1="620" x2="204" y2="792"/><line x1="232" y1="620" x2="232" y2="792"/>
      <line x1="260" y1="620" x2="260" y2="792"/><line x1="288" y1="620" x2="288" y2="792"/>
      <line x1="316" y1="620" x2="316" y2="792"/>
    </g>
    <g stroke="#FA8072" stroke-width="2" stroke-linecap="round">
      <line x1="92" y1="706" x2="92" y2="792"/><line x1="120" y1="675" x2="120" y2="792"/>
      <line x1="148" y1="727" x2="148" y2="792"/><line x1="176" y1="658" x2="176" y2="792"/>
      <line x1="204" y1="740" x2="204" y2="792"/><line x1="232" y1="689" x2="232" y2="792"/>
      <line x1="260" y1="716" x2="260" y2="792"/><line x1="288" y1="668" x2="288" y2="792"/>
      <line x1="316" y1="709" x2="316" y2="792"/>
    </g>
  </g>

  <rect x="352" y="588" width="624" height="228" rx="6" class="card"/>
  <text x="364" y="606" class="sec" font-size="10.5" letter-spacing="1.5" font-weight="500">STYLE PARAMETERS &#8212; 21 AUTOMATABLE</text>
  <g opacity="0.5" font-size="9.5">
    <g class="sec">
      <text x="364" y="630">RESONANCE</text><text x="364" y="658">FILTER TYPE</text><text x="364" y="686">CURVE SHAPE</text>
      <text x="364" y="714">GRAIN SIZE</text><text x="364" y="742">GRAIN SPEED</text><text x="364" y="770">SUBDIVIDE</text>
      <text x="364" y="798">SR REDUCTION</text>
      <text x="576" y="630">SR MODE</text><text x="576" y="658">BIT DEPTH</text><text x="576" y="686">BIT MODE</text>
      <text x="576" y="714">RATE</text><text x="576" y="742">FWD CURVE</text><text x="576" y="770">BWD CURVE</text>
      <text x="576" y="798">DELAY TIME</text>
      <text x="788" y="630">DELAY MODE</text><text x="788" y="658">MIX</text><text x="788" y="686">MIX MODE</text>
      <text x="788" y="714">FEEDBACK</text><text x="788" y="742">FBK MODE</text><text x="788" y="770">VOLUME</text>
      <text x="788" y="798">VOLUME MODE</text>
    </g>
    <g class="track">
      <rect x="434" y="623" width="70" height="4" rx="2"/><rect x="434" y="651" width="70" height="4" rx="2"/><rect x="434" y="679" width="70" height="4" rx="2"/>
      <rect x="434" y="707" width="70" height="4" rx="2"/><rect x="434" y="735" width="70" height="4" rx="2"/><rect x="434" y="763" width="70" height="4" rx="2"/>
      <rect x="434" y="791" width="70" height="4" rx="2"/>
      <rect x="646" y="623" width="70" height="4" rx="2"/><rect x="646" y="651" width="70" height="4" rx="2"/><rect x="646" y="679" width="70" height="4" rx="2"/>
      <rect x="646" y="707" width="70" height="4" rx="2"/><rect x="646" y="735" width="70" height="4" rx="2"/><rect x="646" y="763" width="70" height="4" rx="2"/>
      <rect x="646" y="791" width="70" height="4" rx="2"/>
      <rect x="858" y="623" width="70" height="4" rx="2"/><rect x="858" y="651" width="70" height="4" rx="2"/><rect x="858" y="679" width="70" height="4" rx="2"/>
      <rect x="858" y="707" width="70" height="4" rx="2"/><rect x="858" y="735" width="70" height="4" rx="2"/><rect x="858" y="763" width="70" height="4" rx="2"/>
      <rect x="858" y="791" width="70" height="4" rx="2"/>
    </g>
    <g class="sal">
      <rect x="434" y="623" width="30" height="4" rx="2"/><rect x="434" y="651" width="20" height="4" rx="2"/><rect x="434" y="679" width="44" height="4" rx="2"/>
      <rect x="434" y="707" width="52" height="4" rx="2"/><rect x="434" y="735" width="62" height="4" rx="2"/><rect x="434" y="763" width="14" height="4" rx="2"/>
      <rect x="434" y="791" width="38" height="4" rx="2"/>
      <rect x="646" y="623" width="24" height="4" rx="2"/><rect x="646" y="651" width="42" height="4" rx="2"/><rect x="646" y="679" width="18" height="4" rx="2"/>
      <rect x="646" y="707" width="48" height="4" rx="2"/><rect x="646" y="735" width="28" height="4" rx="2"/><rect x="646" y="763" width="56" height="4" rx="2"/>
      <rect x="646" y="791" width="34" height="4" rx="2"/>
      <rect x="858" y="623" width="22" height="4" rx="2"/><rect x="858" y="651" width="50" height="4" rx="2"/><rect x="858" y="679" width="16" height="4" rx="2"/>
      <rect x="858" y="707" width="40" height="4" rx="2"/><rect x="858" y="735" width="26" height="4" rx="2"/><rect x="858" y="763" width="66" height="4" rx="2"/>
      <rect x="858" y="791" width="12" height="4" rx="2"/>
    </g>
    <g class="pri mono" font-size="9.5" text-anchor="end">
      <text x="514" y="630">0.42</text><text x="514" y="658">LP12</text><text x="514" y="686">SMOOTH</text>
      <text x="514" y="714">40 MS</text><text x="514" y="742">4.0&#215;</text><text x="514" y="770">OFF</text>
      <text x="514" y="798">12</text>
      <text x="726" y="630">SWEEP</text><text x="726" y="658">5 BIT</text><text x="726" y="686">WINDOW</text>
      <text x="726" y="714">1/8</text><text x="726" y="742">LINEAR</text><text x="726" y="770">EASE-IN</text>
      <text x="726" y="798">6.0 MS</text>
      <text x="938" y="630">WINDOW</text><text x="938" y="658">0.50</text><text x="938" y="686">PER-PICK</text>
      <text x="938" y="714">0.30</text><text x="938" y="742">WHOLE</text><text x="938" y="770">1.00</text>
      <text x="938" y="798">OFF</text>
    </g>
  </g>

  <!-- ==================== FOOTER h24 ==================== -->
  <line x1="40" y1="816" x2="1000" y2="816" class="hair"/>
  <text x="64" y="831" class="sec mono" font-size="9.5">44.1 kHz &#183; STEREO &#183; 3:02.4 &#183; 37 SLICES</text>
  <circle cx="898" cy="827" r="3" class="sal"/>
  <text x="908" y="831" class="sec" font-size="9.5" letter-spacing="1">ENGINE LIVE</text>

  <!-- ==================== MARKERS ==================== -->
  <g>
    <circle cx="1012" cy="52" r="10" class="badge"/><text x="1012" y="56" text-anchor="middle" class="badgetxt">1</text>
    <circle cx="1012" cy="76" r="10" class="badge"/><text x="1012" y="80" text-anchor="middle" class="badgetxt">2</text>
    <circle cx="1012" cy="216" r="10" class="badge"/><text x="1012" y="220" text-anchor="middle" class="badgetxt">3</text>
    <circle cx="1012" cy="374" r="10" class="badge"/><text x="1012" y="378" text-anchor="middle" class="badgetxt">4</text>
    <circle cx="1012" cy="510" r="10" class="badge"/><text x="1012" y="514" text-anchor="middle" class="badgetxt">5</text>
    <circle cx="1012" cy="564" r="10" class="badge"/><text x="1012" y="568" text-anchor="middle" class="badgetxt">6</text>
    <circle cx="1012" cy="700" r="10" class="badge"/><text x="1012" y="704" text-anchor="middle" class="badgetxt">7</text>
    <circle cx="1012" cy="828" r="10" class="badge"/><text x="1012" y="832" text-anchor="middle" class="badgetxt">8</text>
  </g>

  <!-- ==================== LEGEND ==================== -->
  <g>
    <text x="1044" y="64" class="pri" font-size="13" font-weight="600" letter-spacing="1">NEDIT &#8212; SHELL v0.3 &#183; 960&#215;800</text>
    <text x="1044" y="80" class="dis" font-size="9.5">dark material &#183; graphite &amp; salmon</text>

    <g class="badgetxt">
      <circle cx="1050" cy="108" r="8" class="badge"/><text x="1050" y="111.5" text-anchor="middle">1</text>
      <circle cx="1050" cy="152" r="8" class="badge"/><text x="1050" y="155.5" text-anchor="middle">2</text>
      <circle cx="1050" cy="196" r="8" class="badge"/><text x="1050" y="199.5" text-anchor="middle">3</text>
      <circle cx="1050" cy="252" r="8" class="badge"/><text x="1050" y="255.5" text-anchor="middle">4</text>
      <circle cx="1050" cy="308" r="8" class="badge"/><text x="1050" y="311.5" text-anchor="middle">5</text>
      <circle cx="1050" cy="364" r="8" class="badge"/><text x="1050" y="367.5" text-anchor="middle">6</text>
      <circle cx="1050" cy="420" r="8" class="badge"/><text x="1050" y="423.5" text-anchor="middle">7</text>
      <circle cx="1050" cy="476" r="8" class="badge"/><text x="1050" y="479.5" text-anchor="middle">8</text>
    </g>
    <g class="legendtxt">
      <text x="1066" y="105">APP BAR h48 &#8212; graphite-800,</text>
      <text x="1066" y="117">hairline divider below</text>
      <text x="1066" y="149">PRIMARY ACTION &#8212; salmon-400,</text>
      <text x="1066" y="161">r4; chips r2 h24 graphite-700</text>
      <text x="1066" y="193">WAVEFORM CARD h240 &#8212; &#8531;</text>
      <text x="1066" y="205">inner column; ruler + zoom inside;</text>
      <text x="1066" y="217">playhead salmon, live slice tinted</text>
      <text x="1066" y="249">GLOBAL STRIP h60 &#8212; tempo &#183;</text>
      <text x="1066" y="261">loop &#183; quantize; always visible,</text>
      <text x="1066" y="273">full-width, above mode tabs</text>
      <text x="1066" y="305">TOOL CARDS 2&#215;2 h60 &#8212; detector,</text>
      <text x="1066" y="317">envelope, pitch mode, trim;</text>
      <text x="1066" y="329">sample-level, mode-independent</text>
      <text x="1066" y="361">TAB BAR h32 &#8212; modes affect the</text>
      <text x="1066" y="373">panels only; active = salmon + 2px</text>
      <text x="1066" y="417">PANEL AREA h228 &#8212; weights card</text>
      <text x="1066" y="429">+ all 21 automatable params;</text>
      <text x="1066" y="441">content swaps per mode tab</text>
      <text x="1066" y="473">FOOTER h24 &#8212; tabular mono</text>
      <text x="1066" y="485">metadata + engine status dot</text>
    </g>

    <text x="1044" y="530" class="dis" font-size="9.5">vertical stack: 48+8+240+8+60+8</text>
    <text x="1044" y="544" class="dis" font-size="9.5">+60+8+60+8+32+8+228+24 = 800</text>
    <text x="1044" y="566" class="dis" font-size="9.5">chips = discrete &#183; slider rows = continuous</text>
    <text x="1044" y="588" class="dis" font-size="9.5">grid 4px &#183; gutters 8 &#183; radii 2/4/6/8</text>
    <text x="1044" y="610" class="dis" font-size="9.5">tokens: design-language.md</text>
  </g>
</svg>
